<svg width="12" height="12" viewBox="0 0 12 12" fill="none" xmlns="http://www.w3.org/2000/svg">
<path d="M5.6 11.274C5.13067 11.274 4.896 11.032 4.896 10.548V6.368H0.782C0.312667 6.368 0.0780001 6.14067 0.0780001 5.686C0.0780001 5.23133 0.312667 5.004 0.782 5.004H4.896V0.955999C4.896 0.471999 5.13067 0.229999 5.6 0.229999C6.06933 0.229999 6.304 0.471999 6.304 0.955999V5.004H10.418C10.8873 5.004 11.122 5.23133 11.122 5.686C11.122 6.14067 10.8873 6.368 10.418 6.368H6.304V10.548C6.304 11.032 6.06933 11.274 5.6 11.274Z" fill="black"/>
</svg>
