<svg width="15" height="14" viewBox="0 0 15 14" fill="none" xmlns="http://www.w3.org/2000/svg">
<path d="M9.8454 6.96313C9.8454 8.52685 8.57116 9.79443 6.99924 9.79443C5.42731 9.79443 4.15308 8.52685 4.15308 6.96313C4.15308 5.39942 5.42731 4.13184 6.99924 4.13184C8.57116 4.13184 9.8454 5.39942 9.8454 6.96313Z" fill="#DB3559"/>
<path d="M13.7286 1.96422C13.591 1.59347 13.3716 1.2579 13.0865 0.982448C12.8096 0.698831 12.4724 0.48056 12.0995 0.343743C11.7971 0.226893 11.3427 0.0878077 10.5058 0.0499165C9.6005 0.00884885 9.32907 0 7.03717 0C4.74505 0 4.47362 0.00862196 3.56854 0.0496896C2.73166 0.0878077 2.27707 0.226893 1.97484 0.343743C1.60191 0.48056 1.26456 0.698831 0.987878 0.982448C0.702759 1.2579 0.483332 1.59325 0.345563 1.96422C0.228095 2.26508 0.0882726 2.71727 0.0501808 3.54975C0.0088957 4.45006 0 4.72006 0 7.00011C0 9.27994 0.0088957 9.54994 0.0501808 10.4505C0.0882726 11.283 0.228095 11.7349 0.345563 12.0358C0.483332 12.4068 0.702531 12.7421 0.98765 13.0176C1.26456 13.3012 1.60168 13.5194 1.97461 13.6563C2.27707 13.7733 2.73166 13.9124 3.56854 13.9503C4.47362 13.9914 4.74482 14 7.03695 14C9.3293 14 9.60073 13.9914 10.5056 13.9503C11.3425 13.9124 11.7971 13.7733 12.0995 13.6563C12.8481 13.369 13.4398 12.7804 13.7286 12.0358C13.846 11.7349 13.9858 11.283 14.0242 10.4505C14.0655 9.54994 14.0741 9.27994 14.0741 7.00011C14.0741 4.72006 14.0655 4.45006 14.0242 3.54975C13.9861 2.71727 13.8463 2.26508 13.7286 1.96422ZM7.03717 11.3844C4.60272 11.3844 2.62925 9.42152 2.62925 6.99989C2.62925 4.57825 4.60272 2.6154 7.03717 2.6154C9.4714 2.6154 11.4449 4.57825 11.4449 6.99989C11.4449 9.42152 9.4714 11.3844 7.03717 11.3844ZM11.6191 3.4667C11.0503 3.4667 10.5891 3.00793 10.5891 2.44205C10.5891 1.87618 11.0503 1.4174 11.6191 1.4174C12.188 1.4174 12.6492 1.87618 12.6492 2.44205C12.649 3.00793 12.188 3.4667 11.6191 3.4667Z" fill="#DB3559"/>
</svg>
