<svg width="20" height="14" viewBox="0 0 20 14" fill="none" xmlns="http://www.w3.org/2000/svg">
<path d="M19.894 11.6002C19.8698 11.548 19.8472 11.5047 19.8262 11.47C19.4792 10.8451 18.8161 10.078 17.8373 9.16856L17.8166 9.14773L17.8063 9.13752L17.7958 9.12705H17.7853C17.341 8.70357 17.0597 8.41883 16.9419 8.27305C16.7264 7.99535 16.6781 7.71425 16.7959 7.42944C16.8791 7.21425 17.1918 6.7598 17.7331 6.06548C18.0178 5.6975 18.2433 5.40259 18.4099 5.1804C19.611 3.58363 20.1317 2.56328 19.9719 2.11893L19.9099 2.01509C19.8682 1.95258 19.7606 1.89539 19.5872 1.84324C19.4135 1.79119 19.1914 1.78258 18.9206 1.81727L15.9217 1.83798C15.8731 1.82077 15.8037 1.82237 15.7134 1.84324C15.6231 1.8641 15.5779 1.87457 15.5779 1.87457L15.5257 1.90064L15.4843 1.93197C15.4496 1.95269 15.4114 1.98913 15.3697 2.04121C15.3282 2.09311 15.2936 2.15402 15.2658 2.22343C14.9393 3.06342 14.5681 3.84441 14.1515 4.56635C13.8946 4.99683 13.6587 5.36991 13.4433 5.6858C13.2281 6.00158 13.0476 6.23423 12.9019 6.38337C12.756 6.53265 12.6244 6.65225 12.5061 6.74259C12.3881 6.83297 12.298 6.87115 12.2355 6.85718C12.173 6.84322 12.1141 6.82936 12.0583 6.8155C11.9612 6.75298 11.8831 6.66797 11.8242 6.56037C11.765 6.45278 11.7252 6.31736 11.7044 6.15421C11.6836 5.99096 11.6714 5.85054 11.6679 5.73248C11.6646 5.61457 11.6661 5.44778 11.6732 5.23259C11.6804 5.01729 11.6836 4.87162 11.6836 4.79525C11.6836 4.53141 11.6888 4.24506 11.6991 3.93614C11.7096 3.62722 11.7181 3.38245 11.7252 3.20213C11.7323 3.02163 11.7356 2.83066 11.7356 2.62933C11.7356 2.428 11.7233 2.27011 11.6991 2.15551C11.6752 2.04106 11.6385 1.92997 11.5901 1.82226C11.5414 1.71467 11.4701 1.63144 11.3766 1.57235C11.2829 1.51334 11.1664 1.46651 11.0278 1.43172C10.6598 1.34845 10.1912 1.30341 9.62185 1.2964C8.33069 1.28254 7.50105 1.36592 7.13311 1.54642C6.98733 1.62269 6.85541 1.72689 6.73746 1.8587C6.61247 2.01148 6.59504 2.09486 6.68527 2.10857C7.10186 2.17098 7.39678 2.32026 7.57035 2.55627L7.6329 2.68134C7.68155 2.77157 7.73013 2.93132 7.77875 3.16037C7.8273 3.38942 7.85863 3.64279 7.87241 3.92035C7.90706 4.4272 7.90706 4.86108 7.87241 5.22201C7.83766 5.58309 7.80483 5.86418 7.7735 6.06551C7.74217 6.26684 7.69534 6.42998 7.6329 6.5549C7.57035 6.67986 7.52873 6.75623 7.50787 6.78395C7.48704 6.81167 7.46968 6.82914 7.4559 6.83599C7.36566 6.87057 7.27182 6.88819 7.17469 6.88819C7.07742 6.88819 6.95947 6.83953 6.82065 6.7423C6.68188 6.64506 6.53785 6.5115 6.38856 6.34139C6.23928 6.17125 6.07093 5.93348 5.88342 5.62806C5.69606 5.32264 5.50166 4.96167 5.30033 4.54516L5.13376 4.24309C5.02963 4.04877 4.88739 3.76581 4.70689 3.39448C4.52628 3.02301 4.36664 2.66368 4.22786 2.31658C4.17238 2.1708 4.08904 2.05981 3.97799 1.98344L3.92587 1.95211C3.89122 1.92439 3.8356 1.89495 3.7593 1.86359C3.68289 1.83226 3.60316 1.80979 3.51978 1.79597L0.666572 1.81668C0.375011 1.81668 0.177184 1.88274 0.073018 2.01466L0.0313299 2.07706C0.0105041 2.11182 0 2.16733 0 2.24374C0 2.32011 0.0208258 2.41385 0.0625139 2.52483C0.47903 3.50376 0.931983 4.44785 1.42137 5.35725C1.91076 6.26666 2.33603 6.99921 2.69692 7.55425C3.05789 8.10969 3.42583 8.63391 3.80073 9.12665C4.17563 9.61958 4.42379 9.93547 4.54521 10.0742C4.66677 10.2133 4.76225 10.3172 4.83166 10.3866L5.09204 10.6365C5.25865 10.8031 5.5033 11.0027 5.82612 11.2352C6.14901 11.4679 6.50648 11.6969 6.89871 11.9227C7.291 12.1482 7.74739 12.3321 8.2681 12.4744C8.78875 12.6169 9.2955 12.674 9.78842 12.6464H10.986C11.2288 12.6255 11.4128 12.5491 11.5379 12.4173L11.5793 12.3651C11.6072 12.3237 11.6333 12.2593 11.6573 12.1727C11.6817 12.0859 11.6938 11.9903 11.6938 11.8863C11.6867 11.5879 11.7094 11.3189 11.7614 11.0794C11.8133 10.84 11.8724 10.6595 11.9386 10.5379C12.0047 10.4165 12.0793 10.314 12.1624 10.2309C12.2456 10.1476 12.3049 10.0972 12.3397 10.0798C12.3743 10.0624 12.4019 10.0505 12.4227 10.0434C12.5893 9.98788 12.7854 10.0416 13.0112 10.2049C13.2369 10.3681 13.4486 10.5695 13.6465 10.8089C13.8444 11.0485 14.0821 11.3174 14.3597 11.6158C14.6376 11.9144 14.8805 12.1363 15.0886 12.2823L15.2968 12.4073C15.4359 12.4907 15.6164 12.567 15.8386 12.6364C16.0604 12.7058 16.2547 12.7232 16.4215 12.6885L19.0872 12.6469C19.3509 12.6469 19.556 12.6032 19.7015 12.5166C19.8474 12.4299 19.934 12.3343 19.9619 12.2303C19.9898 12.1262 19.9913 12.0081 19.9672 11.8761C19.9425 11.7444 19.9182 11.6523 19.894 11.6002Z" fill="#DB3559"/>
</svg>
