<svg width="20" height="21" viewBox="0 0 20 21" fill="none" xmlns="http://www.w3.org/2000/svg">
<path d="M19.4755 15.1879L16.6786 12.3909C15.6797 11.392 13.9816 11.7916 13.582 13.0902C13.2823 13.9892 12.2834 14.4887 11.3844 14.2889C9.38661 13.7894 6.68957 11.1923 6.19012 9.09455C5.89045 8.1955 6.48979 7.1966 7.3888 6.89696C8.68738 6.4974 9.08694 4.79927 8.08804 3.80036L5.2911 1.00343C4.49198 0.304196 3.29329 0.304196 2.59406 1.00343L0.696143 2.90135C-1.20177 4.89916 0.895924 10.1933 5.59077 14.8882C10.2856 19.5831 15.5798 21.7807 17.5776 19.7828L19.4755 17.8849C20.1748 17.0858 20.1748 15.8871 19.4755 15.1879Z" fill="#484242"/>
</svg>
