<svg width="117" height="135" viewBox="0 0 117 135" fill="none" xmlns="http://www.w3.org/2000/svg">
<path d="M99.8672 100.419L91.8921 108.351C86.0132 114.148 78.3874 121.606 69.0081 130.727C66.1891 133.468 62.4213 135 58.5 135C54.5787 135 50.8109 133.468 47.9919 130.727L24.5368 107.783C21.5873 104.872 19.1215 102.419 17.1328 100.419C8.95184 92.1922 3.38067 81.7106 1.12378 70.2998C-1.13311 58.8889 0.0256259 47.0614 4.45347 36.3127C8.88132 25.5641 16.3794 16.3771 25.9996 9.91352C35.6198 3.44992 46.93 0 58.5 0C70.07 0 81.3802 3.44992 91.0004 9.91352C100.621 16.3771 108.119 25.5641 112.547 36.3127C116.974 47.0614 118.133 58.8889 115.876 70.2998C113.619 81.7106 108.048 92.1922 99.8672 100.419Z" fill="url(#paint0_linear_2_37)"/>
<path d="M43.6694 55.4893C43.7735 55.7287 44.0063 55.9556 44.2284 55.923C44.5808 55.8694 45.061 55.3083 45.559 54.8668C47.3412 53.3242 49.5995 54.0119 50.2082 55.5422C50.8324 57.102 49.501 58.5032 49.6386 59.5384C49.6965 59.9891 50.0499 60.3538 50.516 60.4437C50.982 60.5337 51.456 60.3286 51.6926 59.9347C52.4372 58.7138 50.4491 56.3007 51.809 54.2793C52.5465 53.206 53.9002 52.6773 55.2139 52.9496C56.7841 53.3445 57.8198 54.772 57.6553 56.3147C57.5739 56.9496 57.2671 57.6017 57.3762 57.9553C57.4818 58.1926 57.7388 58.3348 58.0069 58.3042C58.344 58.2433 58.6168 58.007 58.7133 57.6926C58.994 56.8432 58.299 55.5531 58.9297 54.3011C59.5828 53.1571 60.9854 52.606 62.2923 52.9799C65.4304 53.757 65.8674 57.7626 67.062 58.1364C67.2728 58.2017 67.3444 58.1504 67.3875 58.1185C67.7093 57.7401 67.8598 57.2548 67.8058 56.7701C67.7464 56.0536 66.8976 54.1277 68.4284 53.2565C69.5254 52.6395 70.6655 53.2744 72.7122 53.8006C72.6471 53.5993 72.5031 53.2931 72.3802 53.0172C72.1174 52.4555 71.7576 51.9401 71.3158 51.4924C69.9225 49.994 68.2319 48.7744 66.3418 47.9042C66.0686 48.2782 65.7588 48.6267 65.4165 48.9448C65.7674 49.0664 65.9852 49.402 65.9432 49.7562C65.9012 50.1104 65.6104 50.391 65.2399 50.4346C61.073 50.9479 56.8537 50.9377 52.6895 50.4043C52.4026 50.3594 52.1625 50.1716 52.0598 49.9118C51.9571 49.6519 52.0074 49.3595 52.1917 49.1447C52.3759 48.9299 52.6662 48.8252 52.9532 48.8702C53.6115 48.9712 53.0769 49.0054 52.0173 47.6221C49.4278 48.6324 46.158 50.4595 44.5531 52.6542C44.0461 53.3444 43.3211 54.7129 43.6694 55.4893Z" fill="white"/>
<path d="M68.1166 36.0141C66.0007 34.9556 64.1216 34.78 62.5331 35.488C60.9446 36.196 59.7621 37.7418 58.989 40.0632C58.9703 40.0274 58.9459 39.9956 58.9304 39.9591C58.7436 39.5241 58.4336 39.1473 58.0352 38.871C57.2546 38.3186 56.253 38.1355 55.3139 38.3736C54.707 38.5481 54.1502 38.8534 53.6863 39.2658C51.721 40.9546 51.4378 43.8286 53.0019 46.2479C53.9095 47.634 55.2914 48.6775 56.913 49.2011C58.6529 49.2717 60.3955 49.2548 62.1335 49.1506C63.4835 48.6525 64.6109 47.7228 65.3236 46.5199C65.889 45.5267 66.0776 44.3774 65.8575 43.2667C65.7536 42.6641 65.506 42.0924 65.134 41.5958C64.5416 40.8608 63.6349 40.4189 62.6641 40.3919C62.1801 40.3708 61.6998 40.4831 61.2807 40.7152C61.0186 40.866 60.7155 40.9388 60.4099 40.9243C61.0365 38.8034 61.9805 37.4504 63.2248 36.8962C64.3308 36.4035 65.7232 36.5698 67.3671 37.3913C67.6265 37.5376 67.9493 37.5351 68.2062 37.3848C68.4631 37.2345 68.612 36.9609 68.5932 36.6737C68.5744 36.3866 68.3911 36.1328 68.1166 36.0141ZM55.8681 41.1341C55.6959 41.1341 55.5314 41.2019 55.4132 41.3214C55.2104 41.5311 55.0589 41.7811 54.9697 42.0535C54.8123 42.4557 54.3434 42.6599 53.9223 42.5097C53.5012 42.3595 53.2873 41.9117 53.4446 41.5095C53.6148 41.0179 53.9014 40.5703 54.282 40.2015C54.7613 39.742 55.4356 39.5192 56.1098 39.5977C56.4017 39.6345 56.65 39.8191 56.7591 40.0803C56.8681 40.3415 56.8209 40.6386 56.6356 40.8572C56.4503 41.0757 56.1559 41.1816 55.8656 41.1341H55.8681Z" fill="white"/>
<path d="M63.7424 66.4102C63.6667 66.3325 63.5935 66.2547 63.5227 66.177C62.5377 67.953 60.6053 69.0633 58.5009 69.0623C56.3965 69.0614 54.4651 67.9492 53.482 66.1724C53.4276 66.2573 53.3626 66.3356 53.2883 66.4055C51.0317 68.6748 47.171 68.793 44.2861 67.7485C45.512 71.8871 47.4736 75.7938 50.0852 79.298C50.6361 79.4627 52.7455 79.9422 58.5137 79.9422C64.2486 79.9422 66.3661 79.4689 66.9439 79.298C69.5541 75.7945 71.5148 71.8889 72.7406 67.7516C69.8548 68.7969 65.995 68.6772 63.7424 66.4102ZM53.2688 78.2573C53.0892 78.3717 52.8694 78.4133 52.6577 78.373C52.446 78.3326 52.2598 78.2136 52.1401 78.042C50.4709 75.6515 48.858 71.0561 48.7896 70.8618C48.6978 70.598 48.7602 70.3075 48.9535 70.0996C49.1467 69.8917 49.4415 69.7981 49.7266 69.854C50.0117 69.9099 50.244 70.1068 50.3359 70.3706C50.3513 70.4165 51.948 74.9629 53.4958 77.1794C53.6155 77.3511 53.6588 77.5611 53.6162 77.7633C53.5736 77.9655 53.4487 78.1432 53.2688 78.2573ZM56.8861 76.8336C56.8861 77.2628 56.5218 77.6107 56.0723 77.6107C55.6229 77.6107 55.2585 77.2628 55.2585 76.8336V71.3934C55.2585 70.9642 55.6229 70.6162 56.0723 70.6162C56.5218 70.6162 56.8861 70.9642 56.8861 71.3934V76.8336ZM61.7689 76.8336C61.7689 77.2628 61.4046 77.6107 60.9551 77.6107C60.5057 77.6107 60.1413 77.2628 60.1413 76.8336V71.3934C60.1413 70.9642 60.5057 70.6162 60.9551 70.6162C61.4046 70.6162 61.7689 70.9642 61.7689 71.3934V76.8336ZM68.2378 70.8618C68.1695 71.0561 66.5565 75.6515 64.8874 78.042C64.726 78.2731 64.4479 78.4043 64.1577 78.3864C63.8675 78.3684 63.6094 78.204 63.4806 77.955C63.3518 77.7061 63.3719 77.4104 63.5332 77.1794C65.0795 74.9606 66.6778 70.418 66.6932 70.3706C66.8353 69.9629 67.2965 69.7423 67.7235 69.8779C68.1505 70.0135 68.3815 70.454 68.2394 70.8618H68.2378Z" fill="white"/>
<path d="M75.4173 60.2351C74.9599 58.4905 74.2055 56.8296 73.1842 55.3187C72.8996 55.3794 72.6039 55.3746 72.3216 55.3047C69.2234 54.5135 68.8401 53.8926 69.2853 55.8767C69.3496 56.1325 69.396 56.3922 69.4244 56.6539C69.5274 57.655 69.1448 58.646 68.386 59.3436C67.4502 60.0431 65.9259 59.869 64.8867 58.1157C64.1046 56.807 63.4105 54.8625 61.8756 54.4825C61.3227 54.3165 60.7213 54.5172 60.397 54.976C60.0714 55.6288 60.6525 56.9904 60.2684 58.153C59.987 59.0568 59.1785 59.7202 58.2005 59.8496C57.1423 59.9708 56.1421 59.3599 55.8136 58.3916C55.7022 57.6326 55.7795 56.8592 56.0391 56.1339C56.1055 55.3751 55.6033 54.6765 54.8379 54.463C54.1939 54.3479 53.5398 54.6093 53.1737 55.1283C52.2858 56.4495 54.3089 58.7351 53.0988 60.7192C52.5111 61.6892 51.3403 62.1924 50.1903 61.9693C49.0403 61.7462 48.1679 60.8467 48.0231 59.7346C47.827 58.244 49.0168 56.915 48.688 56.0927C48.5459 55.8007 48.2567 55.5988 47.9222 55.5581C46.5762 55.3778 46.0716 57.215 44.4888 57.4536C43.9047 57.5363 43.3119 57.371 42.8661 57.0013C40.9423 60.6446 40.5175 64.4224 44.4221 66.1205C46.9107 67.1946 50.5207 67.1557 52.2581 65.1724C52.6027 64.7838 53.1254 64.5822 53.6559 64.6333C54.1863 64.6844 54.6564 64.9816 54.9128 65.4281C55.5778 66.7393 56.989 67.5537 58.5138 67.5062C60.0383 67.554 61.4493 66.7403 62.1149 65.4296C62.3712 64.9837 62.8408 64.6868 63.3708 64.6355C63.9008 64.5843 64.4232 64.7854 64.7679 65.1732C66.5257 67.1721 70.1389 67.1892 72.6072 66.1221C75.1756 65.0053 75.9959 62.8836 75.4173 60.2351Z" fill="white"/>
<defs>
<linearGradient id="paint0_linear_2_37" x1="72.026" y1="176.625" x2="72.6366" y2="17.1634" gradientUnits="userSpaceOnUse">
<stop stop-color="#802034"/>
<stop offset="0.508333" stop-color="#DA3E60"/>
<stop offset="1" stop-color="#FA7491"/>
</linearGradient>
</defs>
</svg>
