<svg width="22" height="19" viewBox="0 0 22 19" fill="none" xmlns="http://www.w3.org/2000/svg">
<path fill-rule="evenodd" clip-rule="evenodd" d="M3.00009 2.65137C2.45238 2.65137 2.00009 3.10365 2.00009 3.65137V15.6514C2.00009 16.1991 2.45238 16.6514 3.00009 16.6514H19.0001C19.5478 16.6514 20.0001 16.1991 20.0001 15.6514V3.65137C20.0001 3.10365 19.5478 2.65137 19.0001 2.65137H3.00009ZM9.15527e-05 3.65137C9.15527e-05 1.99908 1.34781 0.651367 3.00009 0.651367H19.0001C20.6524 0.651367 22.0001 1.99908 22.0001 3.65137V15.6514C22.0001 17.3037 20.6524 18.6514 19.0001 18.6514H3.00009C1.34781 18.6514 9.15527e-05 17.3037 9.15527e-05 15.6514V3.65137Z" fill="#DB3559"/>
<path fill-rule="evenodd" clip-rule="evenodd" d="M0.180854 3.07799C0.497568 2.62554 1.1211 2.51551 1.57355 2.83222L11.0001 9.4308L20.4266 2.83222C20.8791 2.51551 21.5026 2.62554 21.8193 3.07799C22.136 3.53044 22.026 4.15397 21.5735 4.47069L11.5735 11.4707C11.2292 11.7117 10.7709 11.7117 10.4266 11.4707L0.426623 4.47069C-0.0258258 4.15397 -0.135861 3.53044 0.180854 3.07799Z" fill="#DB3559"/>
</svg>
