<svg width="45" height="59" viewBox="0 0 45 59" fill="none" xmlns="http://www.w3.org/2000/svg">
<path d="M3.32865 26.5705C3.46415 26.8819 3.76689 27.177 4.05588 27.1346C4.51423 27.0648 5.13877 26.335 5.7866 25.7608C8.10483 23.7541 11.0423 24.6488 11.8341 26.6392C12.646 28.6681 10.9142 30.4908 11.0931 31.8373C11.1684 32.4235 11.6282 32.8979 12.2344 33.0149C12.8406 33.1319 13.4572 32.8652 13.7649 32.3529C14.7335 30.7647 12.1474 27.6259 13.9163 24.9965C14.8756 23.6004 16.6364 22.9128 18.3452 23.2669C20.3877 23.7805 21.7349 25.6374 21.5209 27.6441C21.415 28.47 21.0159 29.3181 21.1578 29.7781C21.2951 30.0868 21.6294 30.2717 21.9782 30.232C22.4166 30.1527 22.7715 29.8454 22.897 29.4364C23.2622 28.3315 22.3582 26.6534 23.1786 25.0248C24.028 23.5368 25.8525 22.82 27.5525 23.3063C31.6343 24.3172 32.2027 29.5274 33.7566 30.0136C34.0308 30.0985 34.124 30.0318 34.1801 29.9904C34.5986 29.4982 34.7944 28.867 34.7242 28.2365C34.6469 27.3044 33.5428 24.7994 35.534 23.6662C36.9609 22.8635 38.4439 23.6894 41.1062 24.3738C41.0215 24.112 40.8341 23.7137 40.6743 23.3548C40.3324 22.6243 39.8644 21.9538 39.2897 21.3714C37.4774 19.4225 35.2784 17.8361 32.8198 16.7041C32.4644 17.1907 32.0614 17.6439 31.6163 18.0577C32.0727 18.2159 32.356 18.6524 32.3014 19.1131C32.2468 19.5739 31.8685 19.9388 31.3866 19.9956C25.9664 20.6633 20.4781 20.65 15.0616 19.9562C14.6883 19.8977 14.3761 19.6534 14.2425 19.3155C14.109 18.9775 14.1743 18.5972 14.414 18.3177C14.6537 18.0383 15.0313 17.9022 15.4046 17.9607C16.2609 18.0921 15.5655 18.1366 14.1872 16.3372C10.8189 17.6513 6.5657 20.028 4.47824 22.8827C3.81876 23.7804 2.87559 25.5606 3.32865 26.5705V26.5705Z" fill="#DB3559"/>
<path d="M35.1284 1.23785C32.3762 -0.138993 29.932 -0.367457 27.8657 0.553474C25.7994 1.4744 24.2614 3.48508 23.2557 6.50464C23.2314 6.45814 23.1996 6.4167 23.1795 6.36918C22.9365 5.80336 22.5333 5.31332 22.0151 4.95392C20.9997 4.23533 19.6969 3.99722 18.4753 4.30695C17.6859 4.53392 16.9616 4.93095 16.3582 5.46746C13.8018 7.66415 13.4335 11.4025 15.468 14.5494C16.6485 16.3524 18.446 17.7096 20.5554 18.3908C22.8186 18.4826 25.0852 18.4606 27.346 18.3251C29.1019 17.6771 30.5684 16.4678 31.4955 14.9032C32.2309 13.6113 32.4762 12.1164 32.1899 10.6716C32.0547 9.88781 31.7328 9.1442 31.2488 8.49814C30.4783 7.5422 29.2989 6.96734 28.0362 6.93226C27.4065 6.90481 26.7819 7.05078 26.2366 7.35279C25.8957 7.54888 25.5014 7.64355 25.104 7.62472C25.9191 4.86597 27.147 3.106 28.7655 2.38523C30.2041 1.74431 32.0152 1.96065 34.1535 3.02917C34.4909 3.21953 34.9109 3.21629 35.245 3.02074C35.5792 2.82519 35.7728 2.46933 35.7484 2.0958C35.724 1.72226 35.4855 1.39218 35.1284 1.23785V1.23785ZM19.1962 7.89766C18.9723 7.89769 18.7582 7.98581 18.6045 8.14129C18.3407 8.41397 18.1436 8.73923 18.0276 9.09356C17.823 9.61669 17.213 9.88236 16.6652 9.68696C16.1174 9.49155 15.8392 8.90906 16.0438 8.38593C16.2653 7.74646 16.638 7.16429 17.1331 6.68458C17.7565 6.0869 18.6337 5.79711 19.5106 5.89911C19.8903 5.94705 20.2133 6.18713 20.3552 6.5269C20.497 6.86667 20.4356 7.25312 20.1946 7.53741C19.9536 7.82169 19.5705 7.95947 19.193 7.89766H19.1962Z" fill="#DB3559"/>
<path d="M29.4386 40.7754C29.3402 40.6743 29.2449 40.5732 29.1528 40.4721C27.8717 42.7822 25.358 44.2265 22.6207 44.2252C19.8834 44.2239 17.3713 42.7773 16.0925 40.4661C16.0217 40.5766 15.9371 40.6784 15.8405 40.7693C12.9052 43.7212 7.88342 43.8748 4.13086 42.5162C5.72545 47.8996 8.27699 52.9812 11.6741 57.5392C12.3907 57.7535 15.1345 58.3772 22.6375 58.3772C30.0971 58.3772 32.8514 57.7616 33.603 57.5392C36.9982 52.9821 39.5487 47.9019 41.143 42.5202C37.3894 43.8799 32.3687 43.7242 29.4386 40.7754V40.7754ZM15.8151 56.1856C15.5816 56.3344 15.2956 56.3885 15.0203 56.336C14.7449 56.2835 14.5027 56.1286 14.3469 55.9055C12.1758 52.796 10.0778 46.8186 9.98887 46.5658C9.86936 46.2227 9.95061 45.8448 10.202 45.5744C10.4534 45.304 10.8367 45.1823 11.2076 45.255C11.5785 45.3277 11.8806 45.5838 12.0001 45.9269C12.0202 45.9866 14.0971 51.9004 16.1105 54.7834C16.2661 55.0067 16.3224 55.28 16.267 55.543C16.2116 55.8059 16.0491 56.0371 15.8151 56.1856V56.1856ZM20.5204 54.3336C20.5204 54.8919 20.0464 55.3445 19.4618 55.3445C18.8772 55.3445 18.4033 54.8919 18.4033 54.3336V47.2573C18.4033 46.699 18.8772 46.2464 19.4618 46.2464C20.0464 46.2464 20.5204 46.699 20.5204 47.2573V54.3336ZM26.8717 54.3336C26.8717 54.8919 26.3977 55.3445 25.8131 55.3445C25.2285 55.3445 24.7546 54.8919 24.7546 54.3336V47.2573C24.7546 46.699 25.2285 46.2464 25.8131 46.2464C26.3977 46.2464 26.8717 46.699 26.8717 47.2573V54.3336ZM35.2861 46.5658C35.1972 46.8186 33.0991 52.796 30.928 55.9055C30.7181 56.206 30.3563 56.3768 29.9789 56.3534C29.6014 56.3301 29.2657 56.1162 29.0982 55.7924C28.9306 55.4685 28.9567 55.0839 29.1666 54.7834C31.1778 51.8973 33.2568 45.9886 33.2769 45.9269C33.4617 45.3966 34.0617 45.1096 34.6171 45.286C35.1725 45.4625 35.4729 46.0354 35.2882 46.5658H35.2861Z" fill="#DB3559"/>
<path d="M44.6248 32.7442C44.0299 30.475 43.0486 28.3146 41.7201 26.3492C41.3499 26.4283 40.9653 26.422 40.5981 26.331C36.5682 25.302 36.0696 24.4942 36.6486 27.0751C36.7322 27.4079 36.7927 27.7456 36.8296 28.086C36.9636 29.3881 36.466 30.6772 35.4789 31.5847C34.2616 32.4945 32.2789 32.2681 30.9272 29.9875C29.9099 28.2851 29.007 25.7558 27.0105 25.2615C26.2913 25.0457 25.509 25.3067 25.0872 25.9034C24.6637 26.7526 25.4195 28.5237 24.9199 30.036C24.5539 31.2116 23.5022 32.0744 22.2301 32.2428C20.8536 32.4005 19.5527 31.6059 19.1254 30.3463C18.9805 29.359 19.0809 28.353 19.4186 27.4097C19.505 26.4226 18.8518 25.5139 17.8562 25.2362C17.0185 25.0865 16.1677 25.4266 15.6915 26.1016C14.5366 27.8201 17.1681 30.7932 15.5941 33.374C14.8296 34.6357 13.3068 35.2903 11.8109 35.0001C10.315 34.7099 9.18028 33.5398 8.99192 32.0932C8.73681 30.1543 10.2844 28.4256 9.85675 27.3561C9.67188 26.9762 9.29575 26.7136 8.86066 26.6606C7.10982 26.4261 6.45352 28.8158 4.39464 29.1262C3.63485 29.2338 2.86379 29.0188 2.28389 28.5378C-0.218518 33.2769 -0.77108 38.1909 4.30784 40.3997C7.54488 41.7968 12.2406 41.7463 14.5006 39.1665C14.9487 38.661 15.6287 38.3987 16.3187 38.4652C17.0087 38.5317 17.6202 38.9183 17.9536 39.499C18.8187 41.2046 20.6542 42.2639 22.6377 42.2022C24.6206 42.2643 26.456 41.2059 27.3218 39.5011C27.6552 38.921 28.266 38.5348 28.9554 38.4681C29.6447 38.4015 30.3243 38.663 30.7726 39.1675C33.0591 41.7675 37.759 41.7897 40.9696 40.4018C44.3104 38.9491 45.3774 36.1893 44.6248 32.7442V32.7442Z" fill="#DB3559"/>
</svg>
