<svg width="72" height="32" viewBox="0 0 72 32" fill="none" xmlns="http://www.w3.org/2000/svg">
<path d="M18.9037 9.82521C18.0384 9.24471 16.7661 8.07511 15.9694 7.20191C15.4689 7.97781 13.779 9.97601 11.8435 12.141C11.0384 11.4212 10.0798 10.693 9.1071 10.0165C10.1148 8.88931 11.0567 7.79981 11.8066 6.92491C14.8786 3.20061 11.6813 -0.17289 9.2536 -0.12199C10.3707 1.61721 10.0947 3.36641 8.8321 5.10271C8.388 5.67151 7.4141 6.79681 6.2126 8.10491C4.9094 7.29391 3.771 6.69481 3.1581 6.37211C2.9962 6.51721 2.554 7.11981 2.4261 7.26291C3.039 7.58561 3.9995 8.34771 5.1051 9.27171C3.1319 11.3707 0.879206 13.6385 -0.479614 14.8703C0.700206 15.6031 1.70218 16.4989 2.8644 17.8276C3.5161 16.4144 5.5739 14.0046 7.6994 11.591C8.5621 12.4266 9.4247 13.2622 10.1301 14.0216C7.7749 16.584 5.4103 18.9769 4.5576 19.5346C5.5029 20.0256 7.39 21.5517 7.9515 22.4721C8.7567 21.0673 17.2662 10.9367 18.9037 9.82521Z" fill="#DB3559"/>
<path d="M21.0043 17.1895C21.2038 15.6923 20.3511 14.6288 19.0414 14.1992C16.8438 13.4586 13.9717 14.5489 12.2268 18.2635C10.4718 21.9999 12.2263 24.8127 14.1162 25.7005C17.8308 27.4453 20.4064 24.3331 21.3781 21.9258C22.3484 19.4649 21.0106 17.0068 18.7471 17.0838C19.9178 17.9784 19.7325 19.6149 18.8855 21.4179C18.0679 23.1021 16.6753 24.5426 15.5124 23.9699C14.057 23.2862 14.1133 21.6422 14.9435 19.5927C16.22 16.4801 18.913 15.0935 21.0043 17.1895Z" fill="#DB3559"/>
<path d="M28.5274 16.561C28.9014 16.1043 30.1109 15 31.3527 14.2968C29.7518 14.3036 28.9422 14.2927 27.7921 14.1555C28.5236 11.4666 29.2224 9.13938 29.7046 8.31348C28.3471 9.31048 26.6778 10.1631 25.2306 10.7953C25.1706 11.4953 24.9609 12.5306 24.6855 13.7478C24.4982 13.7054 24.3057 13.6864 24.0897 13.6622C23.573 13.9882 22.6399 14.9582 21.8468 15.4185C22.5755 15.4603 23.3873 15.5702 24.2044 15.6567C23.4085 18.8477 22.3525 22.6443 21.8719 25.0946C21.0695 29.2931 25.4605 30.1144 27.215 28.1245C25.8617 28.0152 24.9712 26.731 25.2271 25.1648C25.5012 23.6274 26.3359 19.83 27.2558 16.1995C27.7708 16.316 28.2102 16.4401 28.5274 16.561Z" fill="#DB3559"/>
<path d="M42.3712 19.7197C44.5824 18.9413 45.2637 16.4321 44.4054 14.9618C43.4503 13.3364 41.0545 13.3905 39.2101 14.185C36.2438 15.4199 34.1089 19.3677 35.2537 24.8978C37.0239 33.5368 45.0017 33.9328 48.7145 29.0373C41.9898 31.4106 39.4969 26.7442 38.8023 24.1316C37.9487 20.9607 37.6695 16.9483 39.9172 16.0915C41.6576 15.4101 43.3081 17.6081 42.3712 19.7197Z" fill="#DB3559"/>
<path d="M53.0044 15.5643C52.1504 16.0675 50.8743 16.6238 49.824 16.977C50.356 17.8971 51.015 19.4687 51.6739 21.0403C52.0254 22.327 51.951 23.5376 51.2126 23.8857C49.843 24.5876 48.3378 22.7565 47.7776 21.3513C45.9118 16.7713 49.3653 15.6847 50.4309 16.2673C50.0907 14.7662 48.1128 13.9529 46.4047 14.9593C44.709 15.9342 42.9277 18.3341 44.7692 22.5581C46.7641 27.1342 49.6254 27.0912 50.9234 26.5253C52.3314 25.9114 52.8672 24.9186 52.98 23.796C53.2926 24.3928 53.5792 24.87 53.8934 25.2305C55.776 27.4468 58.1751 25.5631 58.8711 23.9767C55.7685 24.7272 53.5872 17.5618 53.0044 15.5643Z" fill="#DB3559"/>
<path d="M59.042 6.66515C58.319 7.56355 57.4803 8.09195 56.4927 8.74165C57.81 10.2069 59.0679 12.5873 57.7893 14.2478C60.9875 18.1741 66.7805 19.2439 69.5302 14.3731C66.1879 15.3621 62.6487 15.2733 60.4433 12.9837C60.8549 11.627 60.5673 8.76575 59.042 6.66515ZM45.1694 9.20485C46.6408 8.16115 47.99 8.14545 49.1813 9.34195C50.2023 10.3676 57.6506 19.7778 59.0318 22.1195C59.6852 21.4016 60.7969 20.3723 61.8706 19.7144C60.2907 18.6488 54.4272 10.4241 51.59 7.47285C48.9987 4.78565 45.5577 6.90745 45.1694 9.20485Z" fill="#DB3559"/>
<path d="M66.8431 8.34151C68.1499 7.69071 69.7538 4.43431 67.1088 2.23671C64.3475 -0.0456942 62.2851 0.826107 60.9128 2.70671C59.6113 4.49031 59.0359 7.84371 63.1266 10.8288C68.1866 14.5212 74.3338 10.3316 71.7732 5.0463C71.2021 7.9868 68.2374 10.3394 64.8992 7.99251C63.0097 6.67321 61.0753 4.8455 61.9843 3.5183C62.8033 2.2739 64.4533 3.27001 65.3676 4.17491C66.3155 5.07451 67.1507 6.90221 66.8431 8.34151Z" fill="#DB3559"/>
</svg>
